<mxfile host="app.diagrams.net" modified="2024-01-07T19:40:03.961Z" agent="Mozilla/5.0 (Macintosh; Intel Mac OS X 10_15_7) AppleWebKit/537.36 (KHTML, like Gecko) Chrome/120.0.0.0 Safari/537.36" etag="dE4YzPWmCfdQuf0OXZPc" version="21.7.0" type="github">
  <diagram id="KASS_JyszIGtR1JOQoC5" name="Page-1">
    <mxGraphModel dx="2470" dy="1767" grid="1" gridSize="10" guides="1" tooltips="1" connect="1" arrows="1" fold="1" page="0" pageScale="1" pageWidth="827" pageHeight="1169" background="#ffffff" math="1" shadow="0">
      <root>
        <mxCell id="0" />
        <mxCell id="1" parent="0" />
        <mxCell id="PkTBSmSXAkz1ON-lmvk_-90" value="" style="edgeStyle=elbowEdgeStyle;rounded=0;orthogonalLoop=1;jettySize=auto;elbow=vertical;html=1;labelBackgroundColor=#FFFFFF;fontSize=21;fontColor=#000000;startArrow=none;startFill=0;endArrow=baseDash;endFill=0;dashed=1;" parent="1" source="PkTBSmSXAkz1ON-lmvk_-78" target="PkTBSmSXAkz1ON-lmvk_-81" edge="1">
          <mxGeometry relative="1" as="geometry" />
        </mxCell>
        <mxCell id="PkTBSmSXAkz1ON-lmvk_-78" value="User&lt;br&gt;&amp;nbsp;(`B_1,B_2,G,H,R_{SG}^1,\beta` )" style="rounded=1;whiteSpace=wrap;html=1;shadow=0;glass=0;labelBackgroundColor=none;labelBorderColor=none;sketch=0;fontSize=19;fillColor=#ffe6cc;strokeColor=#d79b00;fillStyle=auto;" parent="1" vertex="1">
          <mxGeometry x="-170" y="-110" width="290" height="60" as="geometry" />
        </mxCell>
        <mxCell id="PkTBSmSXAkz1ON-lmvk_-97" style="edgeStyle=elbowEdgeStyle;rounded=0;orthogonalLoop=1;jettySize=auto;elbow=vertical;html=1;labelBackgroundColor=#FFFFFF;fontSize=21;fontColor=#000000;startArrow=none;startFill=0;endArrow=baseDash;endFill=0;dashed=1;" parent="1" source="PkTBSmSXAkz1ON-lmvk_-79" target="PkTBSmSXAkz1ON-lmvk_-96" edge="1">
          <mxGeometry relative="1" as="geometry">
            <Array as="points">
              <mxPoint x="970" y="180" />
            </Array>
          </mxGeometry>
        </mxCell>
        <mxCell id="PkTBSmSXAkz1ON-lmvk_-79" value="IoT Sensor Node&lt;br&gt;&amp;nbsp;(`C_{SN},\phi,F,R_{SG}^2,\gamma`)" style="rounded=1;whiteSpace=wrap;html=1;shadow=0;glass=0;labelBackgroundColor=none;labelBorderColor=none;sketch=0;fontSize=19;fillColor=#e1d5e7;strokeColor=#9673a6;" parent="1" vertex="1">
          <mxGeometry x="870" y="-110" width="210" height="70" as="geometry" />
        </mxCell>
        <mxCell id="PkTBSmSXAkz1ON-lmvk_-92" value="" style="edgeStyle=elbowEdgeStyle;rounded=0;orthogonalLoop=1;jettySize=auto;elbow=vertical;html=1;dashed=1;labelBackgroundColor=#FFFFFF;fontSize=21;fontColor=#000000;startArrow=none;startFill=0;endArrow=baseDash;endFill=0;" parent="1" source="PkTBSmSXAkz1ON-lmvk_-80" target="PkTBSmSXAkz1ON-lmvk_-82" edge="1">
          <mxGeometry relative="1" as="geometry">
            <Array as="points">
              <mxPoint x="550" />
            </Array>
          </mxGeometry>
        </mxCell>
        <mxCell id="PkTBSmSXAkz1ON-lmvk_-80" value="Gateway&lt;br&gt;&amp;nbsp;(`G,H,U_{ID},C_U,\tau_1,\tau_2,R_{SG}^1,\beta,C_{SN},\phi,F,R_{SG}^2,\gamma` )" style="rounded=1;html=1;shadow=0;glass=0;labelBackgroundColor=none;labelBorderColor=none;sketch=0;fontSize=19;whiteSpace=wrap;fillColor=#f8cecc;strokeColor=#b85450;" parent="1" vertex="1">
          <mxGeometry x="340" y="-110" width="480" height="60" as="geometry" />
        </mxCell>
        <mxCell id="PkTBSmSXAkz1ON-lmvk_-83" style="edgeStyle=elbowEdgeStyle;rounded=0;orthogonalLoop=1;jettySize=auto;elbow=vertical;html=1;entryX=0;entryY=0.25;entryDx=0;entryDy=0;labelBackgroundColor=#FFFFFF;fontSize=21;fontColor=#000000;startArrow=none;startFill=0;endArrow=classic;endFill=1;" parent="1" source="PkTBSmSXAkz1ON-lmvk_-81" target="PkTBSmSXAkz1ON-lmvk_-82" edge="1">
          <mxGeometry relative="1" as="geometry" />
        </mxCell>
        <mxCell id="PkTBSmSXAkz1ON-lmvk_-118" value="&amp;nbsp; `\beta, N_1`&amp;nbsp;&amp;nbsp;" style="edgeLabel;html=1;align=center;verticalAlign=middle;resizable=0;points=[];fontSize=21;fontColor=#000000;labelBorderColor=default;labelBackgroundColor=#FFB366;" parent="PkTBSmSXAkz1ON-lmvk_-83" vertex="1" connectable="0">
          <mxGeometry x="-0.0961" y="-2" relative="1" as="geometry">
            <mxPoint as="offset" />
          </mxGeometry>
        </mxCell>
        <mxCell id="PkTBSmSXAkz1ON-lmvk_-91" value="" style="edgeStyle=elbowEdgeStyle;rounded=0;orthogonalLoop=1;jettySize=auto;elbow=vertical;html=1;dashed=1;labelBackgroundColor=#FFFFFF;fontSize=21;fontColor=#000000;startArrow=none;startFill=0;endArrow=baseDash;endFill=0;" parent="1" source="PkTBSmSXAkz1ON-lmvk_-81" target="PkTBSmSXAkz1ON-lmvk_-85" edge="1">
          <mxGeometry relative="1" as="geometry">
            <Array as="points">
              <mxPoint x="55" y="190" />
            </Array>
          </mxGeometry>
        </mxCell>
        <mxCell id="PkTBSmSXAkz1ON-lmvk_-81" value="&lt;blockquote style=&quot;margin: 0 0 0 40px; border: none; padding: 0px;&quot;&gt;Input: `Bio^\prime =&amp;nbsp; &amp;nbsp; (B_1^\prime, B_2^\prime)`&lt;br&gt;Validate:&amp;nbsp; &amp;nbsp; &amp;nbsp;`Bio^\prime =^?&amp;nbsp; &amp;nbsp; Bio`&lt;br&gt;Generate:&amp;nbsp; N&lt;sub&gt;1&lt;/sub&gt;&lt;/blockquote&gt;" style="rounded=1;whiteSpace=wrap;html=1;shadow=0;glass=0;labelBackgroundColor=none;labelBorderColor=none;sketch=0;fontSize=19;align=left;fillColor=#cdeb8b;strokeColor=#36393d;" parent="1" vertex="1">
          <mxGeometry x="-170" y="10" width="290" height="130" as="geometry" />
        </mxCell>
        <mxCell id="PkTBSmSXAkz1ON-lmvk_-93" style="edgeStyle=elbowEdgeStyle;rounded=0;orthogonalLoop=1;jettySize=auto;elbow=vertical;html=1;dashed=1;labelBackgroundColor=#FFFFFF;fontSize=21;fontColor=#000000;startArrow=none;startFill=0;endArrow=baseDash;endFill=0;" parent="1" source="PkTBSmSXAkz1ON-lmvk_-82" edge="1">
          <mxGeometry relative="1" as="geometry">
            <mxPoint x="551" y="330" as="targetPoint" />
            <Array as="points">
              <mxPoint x="550" y="260" />
            </Array>
          </mxGeometry>
        </mxCell>
        <mxCell id="PkTBSmSXAkz1ON-lmvk_-82" value="&lt;blockquote style=&quot;margin: 0 0 0 40px; border: none; padding: 0px;&quot;&gt;&lt;font style=&quot;font-size: 21px;&quot;&gt;Identify:&amp;nbsp; &amp;nbsp;`\beta`&lt;br&gt;&lt;/font&gt;&lt;font style=&quot;font-size: 21px;&quot;&gt;Validate:&amp;nbsp; &amp;nbsp;`N_1`&lt;br&gt;&lt;/font&gt;&lt;font style=&quot;font-size: 21px;&quot;&gt;Generate:&amp;nbsp; `N_2`&lt;/font&gt;&lt;font style=&quot;font-size: 21px;&quot;&gt;&lt;div style=&quot;&quot;&gt;Select:&amp;nbsp; `(C_U, R_U)_{CRP-U}`&lt;/div&gt;&lt;/font&gt;&lt;/blockquote&gt;" style="rounded=1;whiteSpace=wrap;html=1;shadow=0;glass=0;labelBackgroundColor=none;labelBorderColor=none;sketch=0;fontSize=19;align=left;fillColor=#cce5ff;strokeColor=#36393d;" parent="1" vertex="1">
          <mxGeometry x="410" y="40" width="310" height="150" as="geometry" />
        </mxCell>
        <mxCell id="PkTBSmSXAkz1ON-lmvk_-114" style="edgeStyle=elbowEdgeStyle;rounded=0;orthogonalLoop=1;jettySize=auto;elbow=vertical;html=1;labelBackgroundColor=#FFFFFF;fontSize=21;fontColor=#000000;startArrow=none;startFill=0;endArrow=baseDash;endFill=0;dashed=1;" parent="1" source="PkTBSmSXAkz1ON-lmvk_-85" target="PkTBSmSXAkz1ON-lmvk_-102" edge="1">
          <mxGeometry relative="1" as="geometry">
            <Array as="points">
              <mxPoint x="60" y="660" />
            </Array>
          </mxGeometry>
        </mxCell>
        <mxCell id="PkTBSmSXAkz1ON-lmvk_-85" value="&lt;blockquote style=&quot;margin: 0 0 0 40px; border: none; padding: 0px;&quot;&gt;Validate:&amp;nbsp; `N_2`&lt;br&gt;Compute:&amp;nbsp; `R_U^\prime = P_U (C_U) (22)`&lt;br&gt;Generate:&amp;nbsp; `N_3, V`&lt;br&gt;Compute:&amp;nbsp; VG, VH&lt;br&gt;Compute:&amp;nbsp; `r_1 = V - h(B_1^\prime)_{T96} C_U (23)`&lt;br&gt;Compute:&amp;nbsp; `r_2 = V - h(R_U^\prime)_{T96} C_U (24)`&lt;/blockquote&gt;" style="rounded=1;whiteSpace=wrap;html=1;shadow=0;glass=0;labelBackgroundColor=none;labelBorderColor=none;sketch=0;fontSize=21;align=left;fillColor=#f8cecc;gradientColor=#ea6b66;strokeColor=#b85450;" parent="1" vertex="1">
          <mxGeometry x="-200" y="240" width="440" height="210" as="geometry" />
        </mxCell>
        <mxCell id="PkTBSmSXAkz1ON-lmvk_-100" style="edgeStyle=elbowEdgeStyle;rounded=0;orthogonalLoop=1;jettySize=auto;elbow=vertical;html=1;labelBackgroundColor=#FFFFFF;fontSize=21;fontColor=#000000;startArrow=none;startFill=0;endArrow=baseDash;endFill=0;dashed=1;" parent="1" source="PkTBSmSXAkz1ON-lmvk_-86" edge="1">
          <mxGeometry relative="1" as="geometry">
            <mxPoint x="550" y="680" as="targetPoint" />
            <Array as="points">
              <mxPoint x="550" y="590" />
            </Array>
          </mxGeometry>
        </mxCell>
        <mxCell id="PkTBSmSXAkz1ON-lmvk_-86" value="&lt;blockquote style=&quot;margin: 0px 0px 0px 40px; border: none; padding: 0px; font-size: 20px;&quot;&gt;&lt;font style=&quot;font-size: 20px;&quot;&gt;Validate:&amp;nbsp; `N_3`&lt;/font&gt;&lt;/blockquote&gt;&lt;blockquote style=&quot;margin: 0px 0px 0px 40px; border: none; padding: 0px; font-size: 20px;&quot;&gt;&lt;font style=&quot;font-size: 20px;&quot;&gt;VG == `r_1G+C_U( \tau_1)`&lt;/font&gt;&lt;/blockquote&gt;&lt;blockquote style=&quot;margin: 0px 0px 0px 40px; border: none; padding: 0px; font-size: 20px;&quot;&gt;&lt;font style=&quot;font-size: 20px;&quot;&gt;VG == ` (V-ZC_U) G+C_U(ZG)`&lt;/font&gt;&lt;/blockquote&gt;&lt;blockquote style=&quot;margin: 0px 0px 0px 40px; border: none; padding: 0px; font-size: 20px;&quot;&gt;&lt;font style=&quot;font-size: 20px;&quot;&gt;VH == `r_2H+C_U(\tau_2)`&lt;/font&gt;&lt;/blockquote&gt;&lt;blockquote style=&quot;margin: 0px 0px 0px 40px; border: none; padding: 0px; font-size: 20px;&quot;&gt;&lt;font style=&quot;font-size: 20px;&quot;&gt;VH ==`(V-WC_U)H+C_U(WH)`&lt;br&gt;Generate:&amp;nbsp; `N_4`&lt;br&gt;Select:&amp;nbsp; `(C_{SN}, R_{SN})_{CRP-SN}`&lt;/font&gt;&lt;/blockquote&gt;" style="rounded=1;whiteSpace=wrap;html=1;shadow=0;glass=0;labelBackgroundColor=none;labelBorderColor=none;sketch=0;fontSize=21;align=left;fillColor=#e6d0de;gradientColor=#d5739d;strokeColor=#996185;" parent="1" vertex="1">
          <mxGeometry x="390" y="330" width="390" height="180" as="geometry" />
        </mxCell>
        <mxCell id="PkTBSmSXAkz1ON-lmvk_-94" value="" style="endArrow=classic;html=1;rounded=0;labelBackgroundColor=#FFFFFF;fontSize=21;fontColor=#000000;elbow=vertical;" parent="1" edge="1">
          <mxGeometry width="50" height="50" relative="1" as="geometry">
            <mxPoint x="410" y="170" as="sourcePoint" />
            <mxPoint x="50" y="170" as="targetPoint" />
            <Array as="points" />
          </mxGeometry>
        </mxCell>
        <mxCell id="PkTBSmSXAkz1ON-lmvk_-119" value="&amp;nbsp; `N_2, C_U`&amp;nbsp;&amp;nbsp;" style="edgeLabel;html=1;align=center;verticalAlign=middle;resizable=0;points=[];fontSize=21;fontColor=#000000;labelBorderColor=default;labelBackgroundColor=#FFB366;" parent="PkTBSmSXAkz1ON-lmvk_-94" vertex="1" connectable="0">
          <mxGeometry x="-0.11" y="-3" relative="1" as="geometry">
            <mxPoint as="offset" />
          </mxGeometry>
        </mxCell>
        <mxCell id="PkTBSmSXAkz1ON-lmvk_-95" value="" style="endArrow=classic;html=1;rounded=0;labelBackgroundColor=#FFFFFF;fontSize=21;fontColor=#000000;elbow=vertical;" parent="1" edge="1">
          <mxGeometry width="50" height="50" relative="1" as="geometry">
            <mxPoint x="320" y="280" as="sourcePoint" />
            <mxPoint x="550" y="280" as="targetPoint" />
          </mxGeometry>
        </mxCell>
        <mxCell id="PkTBSmSXAkz1ON-lmvk_-120" value="&amp;nbsp; `N_3, VG, VH, r_1, r_2`&amp;nbsp;&amp;nbsp;" style="edgeLabel;html=1;align=center;verticalAlign=middle;resizable=0;points=[];fontSize=21;fontColor=#000000;labelBorderColor=default;labelBackgroundColor=#FFB366;" parent="PkTBSmSXAkz1ON-lmvk_-95" vertex="1" connectable="0">
          <mxGeometry x="-0.2075" y="3" relative="1" as="geometry">
            <mxPoint x="-1" as="offset" />
          </mxGeometry>
        </mxCell>
        <mxCell id="PkTBSmSXAkz1ON-lmvk_-104" style="edgeStyle=elbowEdgeStyle;rounded=0;orthogonalLoop=1;jettySize=auto;elbow=vertical;html=1;entryX=0.411;entryY=-0.008;entryDx=0;entryDy=0;entryPerimeter=0;labelBackgroundColor=#FFFFFF;fontSize=21;fontColor=#000000;startArrow=none;startFill=0;endArrow=baseDash;endFill=0;dashed=1;" parent="1" source="PkTBSmSXAkz1ON-lmvk_-143" target="PkTBSmSXAkz1ON-lmvk_-103" edge="1">
          <mxGeometry relative="1" as="geometry">
            <Array as="points">
              <mxPoint x="970" y="760" />
            </Array>
          </mxGeometry>
        </mxCell>
        <mxCell id="PkTBSmSXAkz1ON-lmvk_-96" value="&lt;blockquote style=&quot;margin: 0 0 0 40px; border: none; padding: 0px;&quot;&gt;Validate:&amp;nbsp; `N_4`&lt;br&gt;Compute:&amp;nbsp; `R_{SN}^\prime = P_{SN} (C_{SN}) (27)`&lt;br&gt;Generate:&amp;nbsp; `N_5, M`&lt;br&gt;Compute:&amp;nbsp; `MF`&lt;br&gt;Compute:&amp;nbsp; `r_3 = M - h(R_{SN}^\prime)_{T96} C_{SN} (28)`&lt;/blockquote&gt;" style="rounded=1;whiteSpace=wrap;html=1;shadow=0;glass=0;labelBackgroundColor=none;labelBorderColor=none;sketch=0;fontSize=21;align=left;fillColor=#dae8fc;gradientColor=#7ea6e0;strokeColor=#6c8ebf;" parent="1" vertex="1">
          <mxGeometry x="800" y="470" width="470" height="190" as="geometry" />
        </mxCell>
        <mxCell id="PkTBSmSXAkz1ON-lmvk_-98" value="" style="endArrow=classic;html=1;rounded=0;labelBackgroundColor=#FFFFFF;fontSize=21;fontColor=#000000;elbow=vertical;exitX=1;exitY=0.25;exitDx=0;exitDy=0;" parent="1" source="PkTBSmSXAkz1ON-lmvk_-86" edge="1">
          <mxGeometry width="50" height="50" relative="1" as="geometry">
            <mxPoint x="690" y="290" as="sourcePoint" />
            <mxPoint x="970" y="368" as="targetPoint" />
            <Array as="points">
              <mxPoint x="780" y="368" />
              <mxPoint x="830" y="368" />
            </Array>
          </mxGeometry>
        </mxCell>
        <mxCell id="PkTBSmSXAkz1ON-lmvk_-123" value="&amp;nbsp; `N_4, C_{SN}, \beta`&amp;nbsp;&amp;nbsp;" style="edgeLabel;html=1;align=center;verticalAlign=middle;resizable=0;points=[];fontSize=21;fontColor=#000000;labelBorderColor=default;labelBackgroundColor=#FFB366;" parent="PkTBSmSXAkz1ON-lmvk_-98" vertex="1" connectable="0">
          <mxGeometry x="-0.0336" y="1" relative="1" as="geometry">
            <mxPoint as="offset" />
          </mxGeometry>
        </mxCell>
        <mxCell id="PkTBSmSXAkz1ON-lmvk_-106" style="edgeStyle=elbowEdgeStyle;rounded=0;orthogonalLoop=1;jettySize=auto;elbow=vertical;html=1;dashed=1;labelBackgroundColor=#FFFFFF;fontSize=21;fontColor=#000000;startArrow=none;startFill=0;endArrow=baseDash;endFill=0;" parent="1" source="PkTBSmSXAkz1ON-lmvk_-99" edge="1">
          <mxGeometry relative="1" as="geometry">
            <mxPoint x="767.5" y="759.5802469135804" as="targetPoint" />
          </mxGeometry>
        </mxCell>
        <mxCell id="PkTBSmSXAkz1ON-lmvk_-108" style="edgeStyle=elbowEdgeStyle;rounded=0;orthogonalLoop=1;jettySize=auto;elbow=vertical;html=1;dashed=1;labelBackgroundColor=#FFFFFF;fontSize=21;fontColor=#000000;startArrow=none;startFill=0;endArrow=baseDash;endFill=0;" parent="1" source="PkTBSmSXAkz1ON-lmvk_-99" edge="1">
          <mxGeometry relative="1" as="geometry">
            <mxPoint x="752.5" y="759.6091954022988" as="targetPoint" />
          </mxGeometry>
        </mxCell>
        <mxCell id="PkTBSmSXAkz1ON-lmvk_-110" style="edgeStyle=elbowEdgeStyle;rounded=0;orthogonalLoop=1;jettySize=auto;elbow=vertical;html=1;dashed=1;labelBackgroundColor=#FFFFFF;fontSize=21;fontColor=#000000;startArrow=none;startFill=0;endArrow=baseDash;endFill=0;" parent="1" source="PkTBSmSXAkz1ON-lmvk_-99" edge="1">
          <mxGeometry relative="1" as="geometry">
            <mxPoint x="752.5" y="759.6091954022988" as="targetPoint" />
          </mxGeometry>
        </mxCell>
        <mxCell id="PkTBSmSXAkz1ON-lmvk_-112" style="edgeStyle=elbowEdgeStyle;rounded=0;orthogonalLoop=1;jettySize=auto;elbow=vertical;html=1;dashed=1;labelBackgroundColor=#FFFFFF;fontSize=21;fontColor=#000000;startArrow=none;startFill=0;endArrow=baseDash;endFill=0;" parent="1" source="PkTBSmSXAkz1ON-lmvk_-99" edge="1">
          <mxGeometry relative="1" as="geometry">
            <mxPoint x="752.5" y="759.6091954022988" as="targetPoint" />
          </mxGeometry>
        </mxCell>
        <mxCell id="PkTBSmSXAkz1ON-lmvk_-116" style="edgeStyle=elbowEdgeStyle;rounded=0;orthogonalLoop=1;jettySize=auto;elbow=vertical;html=1;dashed=1;labelBackgroundColor=#FFFFFF;fontSize=21;fontColor=#000000;startArrow=none;startFill=0;endArrow=baseDash;endFill=0;" parent="1" source="PkTBSmSXAkz1ON-lmvk_-99" edge="1">
          <mxGeometry relative="1" as="geometry">
            <mxPoint x="297.5" y="759.6421052631579" as="targetPoint" />
          </mxGeometry>
        </mxCell>
        <mxCell id="PkTBSmSXAkz1ON-lmvk_-99" value="&lt;blockquote style=&quot;margin: 0 0 0 40px; border: none; padding: 0px;&quot;&gt;&amp;nbsp; &amp;nbsp;Validate:&amp;nbsp; `N_5`&lt;/blockquote&gt;&lt;blockquote style=&quot;margin: 0 0 0 40px; border: none; padding: 0px;&quot;&gt;&lt;span style=&quot;white-space: pre;&quot;&gt; &lt;span style=&quot;white-space: pre;&quot;&gt; &lt;span style=&quot;white-space: pre;&quot;&gt;     &lt;/span&gt;&lt;/span&gt;&lt;/span&gt;MF == `r_3F+C_{SN}(\phi)`&lt;/blockquote&gt;&lt;blockquote style=&quot;margin: 0 0 0 40px; border: none; padding: 0px;&quot;&gt;&lt;span style=&quot;white-space: pre;&quot;&gt; &lt;span style=&quot;white-space: pre;&quot;&gt; &lt;span style=&quot;white-space: pre;&quot;&gt;     &lt;/span&gt;&lt;/span&gt;&lt;/span&gt;MF == `(M-XC_{SN})F+C_{SN}(XF)`&lt;br&gt;&amp;nbsp; &amp;nbsp;Generate:&amp;nbsp; `N_6, N_7, \beta_{\n\ew}, \gamma_{\n\ew}`&lt;br&gt;&amp;nbsp; &amp;nbsp;Compute:&amp;nbsp; `K_1 = E(R_{SG}^1, SK_U ||&amp;nbsp; R_{SG}^1 || \beta_{\n\ew}) (32)`&lt;br&gt;&amp;nbsp; &amp;nbsp;Compute:&amp;nbsp; `K_2 = E(R_{SG}^2, SK_{SN} ||&amp;nbsp; R_{SG}^2 || \gamma_{\n\ew}) (33)`&lt;/blockquote&gt;" style="rounded=1;whiteSpace=wrap;html=1;shadow=0;glass=0;labelBackgroundColor=none;labelBorderColor=none;sketch=0;fontSize=21;align=left;fillColor=#d5e8d4;gradientColor=#97d077;strokeColor=#82b366;" parent="1" vertex="1">
          <mxGeometry x="270" y="650" width="630" height="190" as="geometry" />
        </mxCell>
        <mxCell id="PkTBSmSXAkz1ON-lmvk_-101" value="" style="endArrow=classic;html=1;rounded=0;labelBackgroundColor=#FFFFFF;fontSize=21;fontColor=#000000;elbow=vertical;exitX=-0.002;exitY=0.65;exitDx=0;exitDy=0;exitPerimeter=0;" parent="1" source="PkTBSmSXAkz1ON-lmvk_-96" edge="1">
          <mxGeometry width="50" height="50" relative="1" as="geometry">
            <mxPoint x="780" y="620" as="sourcePoint" />
            <mxPoint x="550" y="592" as="targetPoint" />
            <Array as="points" />
          </mxGeometry>
        </mxCell>
        <mxCell id="PkTBSmSXAkz1ON-lmvk_-124" value="&amp;nbsp; `N_5, MF, r_3`&amp;nbsp;&amp;nbsp;" style="edgeLabel;html=1;align=center;verticalAlign=middle;resizable=0;points=[];fontSize=21;fontColor=#000000;labelBorderColor=default;labelBackgroundColor=#FFB366;" parent="PkTBSmSXAkz1ON-lmvk_-101" vertex="1" connectable="0">
          <mxGeometry x="-0.1243" y="-3" relative="1" as="geometry">
            <mxPoint as="offset" />
          </mxGeometry>
        </mxCell>
        <mxCell id="PkTBSmSXAkz1ON-lmvk_-102" value="&lt;blockquote style=&quot;margin: 0 0 0 40px; border: none; padding: 0px;&quot;&gt;Validate:&amp;nbsp; `N_6`&lt;br&gt;Compute:&amp;nbsp; `K_1 = D(R_{SG}^1, K_1) (34)`&lt;br&gt;Validate:&amp;nbsp; `R_{SG}^1` (T-C/E-A)&lt;br&gt;Store:&amp;nbsp; `SK_U, \beta_{\n\ew}`&lt;/blockquote&gt;" style="rounded=1;whiteSpace=wrap;html=1;shadow=0;glass=0;labelBackgroundColor=none;labelBorderColor=none;sketch=0;fontSize=21;align=left;fillColor=#fad7ac;strokeColor=#b46504;gradientDirection=south;gradientColor=none;" parent="1" vertex="1">
          <mxGeometry x="-290" y="870" width="370" height="150" as="geometry" />
        </mxCell>
        <mxCell id="PkTBSmSXAkz1ON-lmvk_-103" value="&lt;blockquote style=&quot;margin: 0 0 0 40px; border: none; padding: 0px;&quot;&gt;Validate:&amp;nbsp; `N_7`&lt;br&gt;Compute:&amp;nbsp; `K_2 = D(R_{SG}^2, K_2) (35)`&lt;br&gt;Validate:&amp;nbsp; `R_{SG}^2` (T-C/E-A)&lt;br&gt;Store:&amp;nbsp; `SK_{SN}, \gamma_{\n\ew}`&lt;/blockquote&gt;" style="rounded=1;whiteSpace=wrap;html=1;shadow=0;glass=0;labelBackgroundColor=none;labelBorderColor=none;sketch=0;fontSize=21;align=left;fillColor=#fff2cc;gradientColor=#ffd966;strokeColor=#d6b656;" parent="1" vertex="1">
          <mxGeometry x="960" y="850" width="390" height="160" as="geometry" />
        </mxCell>
        <mxCell id="PkTBSmSXAkz1ON-lmvk_-113" value="" style="endArrow=classic;html=1;rounded=0;labelBackgroundColor=#FFFFFF;fontSize=21;fontColor=#000000;elbow=vertical;exitX=1;exitY=0.5;exitDx=0;exitDy=0;arcSize=35;" parent="1" source="PkTBSmSXAkz1ON-lmvk_-99" edge="1">
          <mxGeometry width="50" height="50" relative="1" as="geometry">
            <mxPoint x="740" y="720" as="sourcePoint" />
            <mxPoint x="1040" y="745" as="targetPoint" />
          </mxGeometry>
        </mxCell>
        <mxCell id="PkTBSmSXAkz1ON-lmvk_-126" value="&amp;nbsp; `N_7, K_2`&amp;nbsp;&amp;nbsp;" style="edgeLabel;html=1;align=center;verticalAlign=middle;resizable=0;points=[];fontSize=21;fontColor=#000000;labelBorderColor=default;labelBackgroundColor=#FFB366;" parent="PkTBSmSXAkz1ON-lmvk_-113" vertex="1" connectable="0">
          <mxGeometry x="-0.1519" y="-1" relative="1" as="geometry">
            <mxPoint x="137" as="offset" />
          </mxGeometry>
        </mxCell>
        <mxCell id="PkTBSmSXAkz1ON-lmvk_-117" value="" style="endArrow=classic;html=1;rounded=0;labelBackgroundColor=#FFFFFF;fontSize=21;fontColor=#000000;elbow=vertical;exitX=-0.006;exitY=0.56;exitDx=0;exitDy=0;exitPerimeter=0;" parent="1" source="PkTBSmSXAkz1ON-lmvk_-99" edge="1">
          <mxGeometry width="50" height="50" relative="1" as="geometry">
            <mxPoint x="560" y="560" as="sourcePoint" />
            <mxPoint x="60" y="756" as="targetPoint" />
          </mxGeometry>
        </mxCell>
        <mxCell id="PkTBSmSXAkz1ON-lmvk_-128" value="&amp;nbsp; `N_6, K_1`&amp;nbsp;&amp;nbsp;" style="edgeLabel;html=1;align=center;verticalAlign=middle;resizable=0;points=[];fontSize=21;fontColor=#000000;labelBorderColor=default;labelBackgroundColor=#FFB366;" parent="PkTBSmSXAkz1ON-lmvk_-117" vertex="1" connectable="0">
          <mxGeometry x="-0.1376" relative="1" as="geometry">
            <mxPoint as="offset" />
          </mxGeometry>
        </mxCell>
        <mxCell id="PkTBSmSXAkz1ON-lmvk_-122" value="" style="endArrow=none;html=1;rounded=0;labelBackgroundColor=#FFFFFF;fontSize=21;fontColor=#000000;elbow=vertical;exitX=1.002;exitY=0.2;exitDx=0;exitDy=0;exitPerimeter=0;" parent="1" source="PkTBSmSXAkz1ON-lmvk_-85" edge="1">
          <mxGeometry width="50" height="50" relative="1" as="geometry">
            <mxPoint x="390" y="400" as="sourcePoint" />
            <mxPoint x="300" y="280" as="targetPoint" />
          </mxGeometry>
        </mxCell>
        <mxCell id="PkTBSmSXAkz1ON-lmvk_-129" value="1" style="text;html=1;align=center;verticalAlign=middle;resizable=0;points=[];autosize=1;strokeColor=none;fillColor=none;fontSize=21;fontColor=#000000;labelBorderColor=default;labelBackgroundColor=#4FFF2B;" parent="1" vertex="1">
          <mxGeometry x="-210" y="-10" width="40" height="40" as="geometry" />
        </mxCell>
        <mxCell id="PkTBSmSXAkz1ON-lmvk_-130" value="2" style="text;html=1;align=center;verticalAlign=middle;resizable=0;points=[];autosize=1;strokeColor=none;fillColor=none;fontSize=21;fontColor=#000000;labelBorderColor=default;labelBackgroundColor=#4FFF2B;" parent="1" vertex="1">
          <mxGeometry x="680" width="40" height="40" as="geometry" />
        </mxCell>
        <mxCell id="PkTBSmSXAkz1ON-lmvk_-131" value="3" style="text;html=1;align=center;verticalAlign=middle;resizable=0;points=[];autosize=1;strokeColor=none;fillColor=none;fontSize=21;fontColor=#000000;labelBorderColor=default;labelBackgroundColor=#4FFF2B;" parent="1" vertex="1">
          <mxGeometry x="-230" y="230" width="40" height="40" as="geometry" />
        </mxCell>
        <mxCell id="PkTBSmSXAkz1ON-lmvk_-132" value="4" style="text;html=1;align=center;verticalAlign=middle;resizable=0;points=[];autosize=1;strokeColor=none;fillColor=none;fontSize=21;fontColor=#000000;labelBorderColor=default;labelBackgroundColor=#4FFF2B;" parent="1" vertex="1">
          <mxGeometry x="350" y="330" width="40" height="40" as="geometry" />
        </mxCell>
        <mxCell id="PkTBSmSXAkz1ON-lmvk_-133" value="5" style="text;html=1;align=center;verticalAlign=middle;resizable=0;points=[];autosize=1;strokeColor=none;fillColor=none;fontSize=21;fontColor=#000000;labelBorderColor=default;labelBackgroundColor=#4FFF2B;" parent="1" vertex="1">
          <mxGeometry x="1220" y="470" width="40" height="40" as="geometry" />
        </mxCell>
        <mxCell id="PkTBSmSXAkz1ON-lmvk_-134" value="6" style="text;html=1;align=center;verticalAlign=middle;resizable=0;points=[];autosize=1;strokeColor=none;fillColor=none;fontSize=21;fontColor=#000000;labelBorderColor=default;labelBackgroundColor=#4FFF2B;" parent="1" vertex="1">
          <mxGeometry x="300" y="610" width="40" height="40" as="geometry" />
        </mxCell>
        <mxCell id="PkTBSmSXAkz1ON-lmvk_-135" value="7" style="text;html=1;align=center;verticalAlign=middle;resizable=0;points=[];autosize=1;strokeColor=none;fillColor=none;fontSize=21;fontColor=#000000;labelBorderColor=default;labelBackgroundColor=#4FFF2B;" parent="1" vertex="1">
          <mxGeometry x="-290" y="830" width="40" height="40" as="geometry" />
        </mxCell>
        <mxCell id="PkTBSmSXAkz1ON-lmvk_-136" value="8" style="text;html=1;align=center;verticalAlign=middle;resizable=0;points=[];autosize=1;strokeColor=none;fillColor=none;fontSize=21;fontColor=#000000;labelBorderColor=default;labelBackgroundColor=#4FFF2B;" parent="1" vertex="1">
          <mxGeometry x="960" y="810" width="40" height="40" as="geometry" />
        </mxCell>
        <mxCell id="PkTBSmSXAkz1ON-lmvk_-137" value="`M_{UG}^1 (20)`" style="text;html=1;align=center;verticalAlign=middle;resizable=0;points=[];autosize=1;strokeColor=none;fillColor=none;fontSize=21;fontColor=#000000;" parent="1" vertex="1">
          <mxGeometry x="150" y="20" width="180" height="40" as="geometry" />
        </mxCell>
        <mxCell id="PkTBSmSXAkz1ON-lmvk_-138" value="`M_{GU}^2 (21)`" style="text;html=1;align=center;verticalAlign=middle;resizable=0;points=[];autosize=1;strokeColor=none;fillColor=none;fontSize=21;fontColor=#000000;" parent="1" vertex="1">
          <mxGeometry x="150" y="110" width="180" height="40" as="geometry" />
        </mxCell>
        <mxCell id="PkTBSmSXAkz1ON-lmvk_-139" value="`M_{UG}^3 (25)`" style="text;html=1;align=center;verticalAlign=middle;resizable=0;points=[];autosize=1;strokeColor=none;fillColor=none;fontSize=21;fontColor=#000000;" parent="1" vertex="1">
          <mxGeometry x="310" y="220" width="180" height="40" as="geometry" />
        </mxCell>
        <mxCell id="PkTBSmSXAkz1ON-lmvk_-140" value="`M_{GI]^4 (26)`" style="text;html=1;align=center;verticalAlign=middle;resizable=0;points=[];autosize=1;strokeColor=none;fillColor=none;fontSize=21;fontColor=#000000;" parent="1" vertex="1">
          <mxGeometry x="755" y="310" width="170" height="40" as="geometry" />
        </mxCell>
        <mxCell id="PkTBSmSXAkz1ON-lmvk_-141" value="`M_{IG}^5 (29)`" style="text;html=1;align=center;verticalAlign=middle;resizable=0;points=[];autosize=1;strokeColor=none;fillColor=none;fontSize=21;fontColor=#000000;" parent="1" vertex="1">
          <mxGeometry x="585" y="530" width="170" height="40" as="geometry" />
        </mxCell>
        <mxCell id="PkTBSmSXAkz1ON-lmvk_-142" value="`M_{GU}^6 (30)`" style="text;html=1;align=center;verticalAlign=middle;resizable=0;points=[];autosize=1;strokeColor=none;fillColor=none;fontSize=21;fontColor=#000000;" parent="1" vertex="1">
          <mxGeometry x="85" y="700" width="180" height="40" as="geometry" />
        </mxCell>
        <mxCell id="k0jrw8HEdO_bckSUXsXh-2" value="" style="shape=curlyBracket;whiteSpace=wrap;html=1;rounded=1;labelPosition=left;verticalLabelPosition=middle;align=right;verticalAlign=middle;size=0;" parent="1" vertex="1">
          <mxGeometry x="340" y="690" width="10" height="50" as="geometry" />
        </mxCell>
        <mxCell id="k0jrw8HEdO_bckSUXsXh-5" value="&lt;font style=&quot;font-size: 21px;&quot;&gt;Check&lt;/font&gt;" style="text;html=1;align=center;verticalAlign=middle;resizable=0;points=[];autosize=1;strokeColor=none;fillColor=none;" parent="1" vertex="1">
          <mxGeometry x="260" y="700" width="80" height="40" as="geometry" />
        </mxCell>
        <mxCell id="zxRx-ijX5y8af5xjsdIm-3" value="" style="edgeStyle=elbowEdgeStyle;rounded=0;orthogonalLoop=1;jettySize=auto;elbow=vertical;html=1;entryX=0.411;entryY=-0.008;entryDx=0;entryDy=0;entryPerimeter=0;labelBackgroundColor=#FFFFFF;fontSize=21;fontColor=#000000;startArrow=none;startFill=0;endArrow=baseDash;endFill=0;dashed=1;" edge="1" parent="1" source="PkTBSmSXAkz1ON-lmvk_-96" target="PkTBSmSXAkz1ON-lmvk_-143">
          <mxGeometry relative="1" as="geometry">
            <Array as="points" />
            <mxPoint x="970" y="660" as="sourcePoint" />
            <mxPoint x="1120" y="849" as="targetPoint" />
          </mxGeometry>
        </mxCell>
        <mxCell id="PkTBSmSXAkz1ON-lmvk_-143" value="`M_{GI}^7 (31)`" style="text;html=1;align=center;verticalAlign=middle;resizable=0;points=[];autosize=1;strokeColor=none;fillColor=none;fontSize=21;fontColor=#000000;" parent="1" vertex="1">
          <mxGeometry x="1025" y="695" width="170" height="40" as="geometry" />
        </mxCell>
      </root>
    </mxGraphModel>
  </diagram>
</mxfile>
